<svg width="1280" height="216" viewBox="0 0 1280 216" fill="none" xmlns="http://www.w3.org/2000/svg">
<path fill-rule="evenodd" clip-rule="evenodd" d="M1280 72.1895L1226.67 78.1816C1173.33 84.1737 1066.67 96.1579 960 90.1658C853.333 84.1737 746.667 60.2053 640 36.2368C533.333 12.2684 426.667 -11.7 320 6.27632C213.333 24.2526 106.667 84.1737 53.3333 114.134L-6.67572e-05 144.095V216H53.3333C106.667 216 213.333 216 320 216C426.667 216 533.333 216 640 216C746.667 216 853.333 216 960 216C1066.67 216 1173.33 216 1226.67 216H1280V72.1895Z" fill="white"/>
</svg>
